<svg width="31" height="21" viewBox="0 0 31 21" fill="none" xmlns="http://www.w3.org/2000/svg">
<path d="M30.6559 15.2093L25.7279 20.6221C25.2692 21.126 24.5255 21.126 24.0667 20.6221L19.1387 15.2093C18.6799 14.7054 18.6799 13.8884 19.1387 13.3846L19.6684 12.8028C20.1364 12.2887 20.8985 12.3006 21.353 12.8292L23.3311 15.1297V5.33908H14.1516C13.8401 5.33907 13.5413 5.20314 13.321 4.9612L12.5379 4.10105C11.7979 3.2882 12.322 1.89846 13.3685 1.89846H25.2888C25.9376 1.89846 26.4635 2.47611 26.4635 3.18869V15.1297L28.4416 12.8292C28.8961 12.3007 29.6582 12.2887 30.1263 12.8028L30.656 13.3846C31.1147 13.8884 31.1147 14.7054 30.6559 15.2093ZM17.6789 16.0388C17.5699 15.919 17.4404 15.824 17.2978 15.7592C17.1553 15.6943 17.0026 15.6609 16.8483 15.661H7.66892V5.87028L9.64705 8.17077C10.1015 8.69928 10.8636 8.71127 11.3317 8.19717L11.8613 7.61538C12.3201 7.11149 12.3201 6.29456 11.8613 5.79072L6.93333 0.377918C6.47458 -0.125973 5.73082 -0.125973 5.27212 0.377918L0.344066 5.79077C-0.114689 6.29466 -0.114689 7.1116 0.344066 7.61543L0.873741 8.19722C1.34175 8.71127 2.10386 8.69934 2.55835 8.17082L4.53648 5.87028V17.8113C4.53648 18.5239 5.06239 19.1016 5.71115 19.1016H17.6315C18.678 19.1016 19.2021 17.7118 18.4621 16.899L17.6789 16.0388Z" fill="#A33247"/>
</svg>
