<svg width="26" height="25" viewBox="0 0 26 25" fill="none" xmlns="http://www.w3.org/2000/svg">
<path d="M25.643 18.2494C26.119 18.7724 26.119 19.6204 25.643 20.1434L21.5805 24.6068C20.8183 25.4444 19.5 24.8574 19.5 23.6598V21.4286H16.5148C16.4312 21.4286 16.3486 21.4097 16.2719 21.3731C16.1953 21.3365 16.1263 21.283 16.0693 21.2159L12.4864 16.9973L15.1947 13.8085L17.875 16.9643H19.5V14.7332C19.5 13.5369 20.8174 12.9476 21.5805 13.7862L25.643 18.2494ZM0.609374 8.03572H4.87499L7.55527 11.1915L10.2636 8.00268L6.68067 3.78415C6.62365 3.71702 6.55468 3.66349 6.47804 3.6269C6.4014 3.5903 6.31873 3.57142 6.23517 3.57143H0.609374C0.272847 3.57143 0 3.87126 0 4.24107V7.36607C0 7.73588 0.272847 8.03572 0.609374 8.03572ZM19.5 8.03572V10.267C19.5 11.4645 20.8183 12.0516 21.5805 11.214L25.643 6.75061C26.119 6.22757 26.119 5.37958 25.643 4.85658L21.5805 0.393357C20.8174 -0.44526 19.5 0.144082 19.5 1.34034V3.57143H16.5148C16.4312 3.57144 16.3486 3.59033 16.2719 3.62692C16.1953 3.66351 16.1263 3.71703 16.0693 3.78415L4.87499 16.9643H0.609374C0.272847 16.9643 0 17.2641 0 17.6339V20.7589C0 21.1287 0.272847 21.4286 0.609374 21.4286H6.23517C6.40407 21.4286 6.5654 21.3515 6.68067 21.2159L17.875 8.03572H19.5Z" fill="#A33247"/>
</svg>
